<svg width="0" height="0" class="hidden"><symbol fill="none" xmlns="http://www.w3.org/2000/svg" viewBox="0 0 50 50" id="ph_phone-call"><path d="M29.629 7.402a1.544 1.544 0 011.914-1.094 17.187 17.187 0 0112.148 12.149 1.541 1.541 0 01-1.093 1.914 1.483 1.483 0 01-.41.059 1.562 1.562 0 01-1.504-1.172 14.18 14.18 0 00-9.942-9.942 1.543 1.543 0 01-1.113-1.914zm-.508 7.95a7.89 7.89 0 015.527 5.527 1.544 1.544 0 001.504 1.172 1.25 1.25 0 00.391-.059 1.543 1.543 0 001.113-1.914 10.898 10.898 0 00-7.734-7.734 1.564 1.564 0 00-1.85 2.31 1.562 1.562 0 001.05.697zm16.113 18.847a10.976 10.976 0 01-10.859 9.55C18.867 43.75 6.25 31.134 6.25 15.626a10.977 10.977 0 019.55-10.86 3.183 3.183 0 013.262 1.875l3.926 9.16a3.106 3.106 0 01-.273 2.95l-3.242 4.96a14.94 14.94 0 006.875 6.837l4.902-3.262a3.048 3.048 0 012.95-.254l9.16 3.906a3.183 3.183 0 011.874 3.262zm-3.105-.39l-9.16-3.907-4.883 3.262a3.124 3.124 0 01-3.066.215 18.066 18.066 0 01-8.36-8.32 3.125 3.125 0 01.195-3.067l3.262-4.96-3.926-9.161a7.812 7.812 0 00-6.816 7.754 25.02 25.02 0 0025 25 7.813 7.813 0 007.754-6.816z" fill="#F5F5F5"/></symbol><symbol fill="none" xmlns="http://www.w3.org/2000/svg" viewBox="0 0 50 50" id="bi_geo-alt"><g clip-path="url(#clip0_30_131)" fill="#F5F5F5"><path d="M38.019 27.938c-1.638 3.318-3.856 6.625-6.125 9.593A98.405 98.405 0 0125 45.563a98.348 98.348 0 01-6.894-8.032c-2.269-2.968-4.487-6.275-6.125-9.593-1.656-3.354-2.606-6.494-2.606-9.188a15.625 15.625 0 1131.25 0c0 2.694-.953 5.834-2.606 9.188zM25 50s18.75-17.769 18.75-31.25a18.75 18.75 0 10-37.5 0C6.25 32.231 25 50 25 50z"/><path d="M25 25a6.25 6.25 0 110-12.5A6.25 6.25 0 0125 25zm0 3.125a9.375 9.375 0 100-18.75 9.375 9.375 0 000 18.75z"/></g><defs><clipPath id="clip0_30_131"><path fill="#fff" d="M0 0h50v50H0z"/></clipPath></defs></symbol></svg>